Patient4_TMGait_0pt8_01_right_34_GRF.mot
version=1
nRows=78
nColumns=19
inDegrees=no
endheader
time	F1x	F1y	F1z	M1x	M1y	M1z	F2x	F2y	F2z	M2x	M2y	M2z	EC1x	EC1y	EC1z	EC2x	EC2y	EC2z
38.07	-10.8791	741.2658	78.4664	-267.5845	-83.6175	790.6766	7.1599	2.4476	-7.4581	3.2583	4.2924	-8.4507	-0.0592	0.0182	-0.0073	-0.0462	0.0165	0.9585
38.0812	-2.3476	737.0809	75.5533	-265.851	-78.0149	783.7169	4.4129	2.8342	-5.1416	2.6504	3.1859	-4.1341	-0.0592	0.0182	-0.0073	-0.0462	0.0165	0.9585
38.0924	5.4672	732.1762	72.9023	-263.8305	-72.7591	775.1715	2.1861	3.1547	-3.1534	2.1325	2.1968	-0.50758	-0.0592	0.0182	-0.0073	-0.0462	0.0165	0.9585
38.1036	12.1627	726.8452	70.597	-261.6466	-68.0528	765.4729	0.53063	3.4415	-1.6216	1.7494	1.4107	2.315	-0.0592	0.0182	-0.0073	-0.0462	0.0165	0.9585
38.1149	17.6491	721.4398	68.6748	-259.4327	-63.9808	755.1944	-0.55516	3.6902	-0.54783	1.5001	0.83624	4.3312	-0.0592	0.0182	-0.0073	-0.0462	0.0165	0.9585
38.1261	22.0583	716.3206	67.053	-257.3239	-60.4519	744.8741	-1.2175	3.9251	0.1277	1.3692	0.47123	5.6858	-0.0592	0.0182	-0.0073	-0.0462	0.0165	0.9585
38.1373	25.6519	711.8764	65.6592	-255.4528	-57.3471	735.0816	-1.5405	4.0936	0.48258	1.3125	0.28506	6.4467	-0.0592	0.0182	-0.0073	-0.0462	0.0165	0.9585
38.1485	28.6963	708.4403	64.4574	-253.9246	-54.5667	726.2743	-1.6786	4.1728	0.60001	1.2877	0.25686	6.7476	-0.0592	0.0182	-0.0073	-0.0462	0.0165	0.9585
38.1597	31.4583	706.2565	63.4021	-252.8023	-52.0035	718.7944	-1.6866	4.0517	0.55853	1.2326	0.3404	6.5582	-0.0592	0.0182	-0.0073	-0.0462	0.0165	0.9585
38.1709	34.1266	705.4522	62.5472	-252.0945	-49.6605	712.8517	-1.6586	3.6463	0.40885	1.0897	0.51441	5.9049	-0.0592	0.0182	-0.0073	-0.0462	0.0165	0.9585
38.1821	36.8227	706.0401	61.8992	-251.7695	-47.527	708.5014	-1.5842	2.8037	0.2079	0.78924	0.72396	4.6377	-0.0592	0.0182	-0.0073	-0.0462	0.0165	0.9585
38.1934	39.6199	707.9413	61.5556	-251.7636	-45.6829	705.7113	-1.5183	1.4286	-0.024039	0.2776	0.9628	2.6907	-0.0592	0.0182	-0.0073	-0.0462	0.0165	0.9585
38.2046	42.5654	710.9905	61.5509	-251.9925	-44.1537	704.3326	-1.3897	-0.60508	-0.25192	-0.49646	1.172	-0.09259	-0.0592	0.0182	-0.0073	-0.0462	0.0165	0.9585
38.2158	45.6628	714.9771	61.9713	-252.3576	-43.015	704.1658	-1.2039	-3.2903	-0.43392	-1.5378	1.2965	-3.6732	-0.0592	0.0182	-0.0073	-0.0462	0.0165	0.9585
38.227	48.9292	719.6569	62.8569	-252.7639	-42.2956	704.9532	-0.84325	-6.5368	-0.52873	-2.8051	1.2429	-7.9458	-0.0592	0.0182	-0.0073	-0.0462	0.0165	0.9585
38.2382	52.3313	724.7631	64.2381	-253.1223	-42.0303	706.4114	-0.2764	-9.9537	-0.45083	-4.1416	0.8876	-12.3937	-0.0592	0.0182	-0.0073	-0.0462	0.0165	0.9585
38.2494	55.8482	729.9456	66.0915	-253.3396	-42.202	708.1574	0.61468	-12.8636	-0.12888	-5.2605	0.091223	-16.1831	-0.0592	0.0182	-0.0073	-0.0462	0.0165	0.9585
38.2606	59.4507	734.7998	68.3095	-253.3195	-42.7157	709.7482	1.8331	-14.0524	0.55753	-5.6682	-1.3054	-17.7594	-0.0592	0.0182	-0.0073	-0.0462	0.0165	0.9585
38.2719	63.0759	738.8405	70.7525	-252.9546	-43.4523	710.6523	3.4175	-11.7985	1.7111	-4.6586	-3.4439	-14.9535	-0.0592	0.0182	-0.0073	-0.0462	0.0165	0.9585
38.2831	66.6827	741.5629	73.1949	-252.1397	-44.2102	710.3215	5.2256	-3.6974	3.4242	-1.2668	-6.3801	-4.6896	-0.0592	0.0182	-0.0073	-0.0462	0.0165	0.9585
38.2943	70.1829	742.4012	75.4383	-250.7535	-44.8279	708.1665	7.0473	13.1131	5.7096	5.6577	-10.0225	16.6877	-0.0592	0.0182	-0.0073	-0.0462	0.0165	0.9585
38.3055	73.5315	740.6467	77.214	-248.6313	-45.0719	703.4859	8.3697	41.7556	8.4514	17.3432	-13.998	53.2115	-0.0592	0.0182	-0.0073	-0.0462	0.0165	0.9585
38.3167	76.6473	735.2668	78.2661	-245.4941	-44.7354	695.3381	8.4611	84.8747	11.3314	34.8133	-17.5654	108.2725	-0.0592	0.0182	-0.0073	-0.0462	0.0165	0.9585
38.3279	79.4041	724.7743	78.293	-240.8964	-43.5919	682.3925	6.1754	143.6795	13.6968	58.4775	-19.4065	183.4703	-0.0592	0.0182	-0.0073	-0.0462	0.0165	0.9585
38.3391	81.5526	707.2472	77.0279	-234.2268	-41.4884	662.9766	-0.015849	216.5546	14.5942	87.589	-17.6867	276.7757	-0.0592	0.0182	-0.0073	-0.0462	0.0165	0.9585
38.3504	82.7225	680.6106	74.2602	-224.8054	-38.3752	635.2823	-11.2834	298.1924	12.8255	119.903	-10.4537	381.4795	-0.0592	0.0182	-0.0073	-0.0462	0.0165	0.9585
38.3616	82.3977	643.1317	69.8822	-212.0479	-34.3473	597.8693	-26.5763	380.0781	7.2233	151.9316	3.2209	486.6245	-0.0592	0.0182	-0.0073	-0.0462	0.0165	0.9585
38.3728	80.1093	593.9663	64.0098	-195.6465	-29.6942	550.0848	-43.1469	453.2197	-2.1875	180.131	22.0931	580.3799	-0.0592	0.0182	-0.0073	-0.0462	0.0165	0.9585
38.384	75.4251	533.6722	56.9713	-175.7318	-24.8668	492.5794	-58.4046	512.5987	-14.038	202.5959	43.35	655.9198	-0.0592	0.0182	-0.0073	-0.0462	0.0165	0.9585
38.3952	68.1988	464.3108	49.2793	-152.9176	-20.38	427.3096	-70.7704	558.6269	-26.6583	219.5747	64.2441	713.5212	-0.0592	0.0182	-0.0073	-0.0462	0.0165	0.9585
38.4064	58.5775	389.3264	41.4631	-128.2686	-16.6551	357.4671	-79.683	594.8589	-38.4479	232.5717	82.5963	757.673	-0.0592	0.0182	-0.0073	-0.0462	0.0165	0.9585
38.4176	47.1125	313.022	33.9847	-103.1547	-13.9067	286.9247	-84.9701	625.123	-48.4265	243.1851	97.1324	793.2941	-0.0592	0.0182	-0.0073	-0.0462	0.0165	0.9585
38.4289	34.7568	240.0271	27.166	-79.0786	-12.0866	219.8364	-86.9667	651.807	-55.9638	252.4221	107.2489	823.5686	-0.0592	0.0182	-0.0073	-0.0462	0.0165	0.9585
38.4401	22.7708	174.4209	21.1853	-57.3952	-10.91	159.7735	-86.1577	675.5491	-61.2561	260.5615	113.3844	849.4232	-0.0592	0.0182	-0.0073	-0.0462	0.0165	0.9585
38.4513	12.3806	118.9508	16.0652	-39.0395	-9.9627	109.1136	-83.267	696.1014	-64.8284	267.4919	116.4775	870.7491	-0.0592	0.0182	-0.0073	-0.0462	0.0165	0.9585
38.4625	4.404	74.7389	11.7279	-24.416	-8.8839	68.7741	-78.9329	712.8475	-67.3297	272.9622	117.6047	886.9731	-0.0592	0.0182	-0.0073	-0.0462	0.0165	0.9585
38.4737	-0.92618	41.5822	8.0515	-13.4775	-7.4776	38.5241	-73.8792	725.4706	-69.3718	276.8255	117.7864	897.9334	-0.0592	0.0182	-0.0073	-0.0462	0.0165	0.9585
38.4849	-3.7817	18.3617	5.0315	-5.8536	-5.8046	17.33	-68.6513	733.8388	-71.1858	279.0493	117.5606	903.6161	-0.0592	0.0182	-0.0073	-0.0462	0.0165	0.9585
38.4961	-4.7138	3.5118	2.6426	-1.0163	-4.0344	3.7542	-63.8187	738.1481	-72.8929	279.7356	117.2742	904.4052	-0.0592	0.0182	-0.0073	-0.0462	0.0165	0.9585
38.5074	-4.489	-4.7785	0.96007	1.6493	-2.4932	-3.8505	-59.6738	738.9352	-74.1934	279.1502	116.7272	900.9649	-0.0592	0.0182	-0.0073	-0.0462	0.0165	0.9585
38.5186	-3.6513	-8.3982	-0.083216	2.7758	-1.3052	-7.1986	-56.3686	737.2037	-74.8713	277.7228	115.7198	894.5503	-0.0592	0.0182	-0.0073	-0.0462	0.0165	0.9585
38.5298	-2.6263	-8.9987	-0.65428	2.9146	-0.45867	-7.7877	-53.7528	734.221	-74.7164	275.9729	113.991	886.6149	-0.0592	0.0182	-0.0073	-0.0462	0.0165	0.9585
38.541	-1.643	-7.9065	-0.85374	2.5078	0.056857	-6.8285	-51.7185	731.1702	-73.8318	274.3518	111.6142	878.5311	-0.0592	0.0182	-0.0073	-0.0462	0.0165	0.9585
38.5522	-0.8216	-6.0404	-0.85899	1.8622	0.35214	-5.1382	-50.0269	728.8099	-72.4695	273.1361	108.7999	871.125	-0.0592	0.0182	-0.0073	-0.0462	0.0165	0.9585
38.5634	-0.21051	-4.0232	-0.73083	1.1829	0.45835	-3.299	-48.5713	727.5487	-70.8782	272.4506	105.7991	864.8504	-0.0592	0.0182	-0.0073	-0.0462	0.0165	0.9585
38.5746	0.20119	-2.1803	-0.57744	0.57361	0.47084	-1.5912	-47.2307	727.5216	-69.2782	272.3185	102.8227	859.8371	-0.0592	0.0182	-0.0073	-0.0462	0.0165	0.9585
38.5859	0.45192	-0.69131	-0.42007	0.087782	0.41935	-0.19962	-45.9449	728.8256	-67.6943	272.7441	99.8973	856.2028	-0.0592	0.0182	-0.0073	-0.0462	0.0165	0.9585
38.5971	0.55762	0.42953	-0.29606	-0.27131	0.34319	0.87309	-44.6469	731.4012	-66.1969	273.6807	97.0692	853.8676	-0.0592	0.0182	-0.0073	-0.0462	0.0165	0.9585
38.6083	0.59378	1.205	-0.21233	-0.51384	0.27411	1.6305	-43.2878	735.1046	-64.7495	275.0526	94.2819	852.6738	-0.0592	0.0182	-0.0073	-0.0462	0.0165	0.9585
38.6195	0.55139	1.7178	-0.16312	-0.66732	0.20616	2.1608	-41.7613	739.6227	-63.4015	276.7289	91.5496	852.238	-0.0592	0.0182	-0.0073	-0.0462	0.0165	0.9585
38.6307	0.49405	2.0191	-0.14215	-0.75394	0.15581	2.4951	-39.9708	744.5928	-62.1637	278.567	88.8475	852.0992	-0.0592	0.0182	-0.0073	-0.0462	0.0165	0.9585
38.6419	0.41008	2.1852	-0.13562	-0.79908	0.11181	2.7163	-37.7868	749.6172	-61.0621	280.4161	86.1563	851.7802	-0.0592	0.0182	-0.0073	-0.0462	0.0165	0.9585
38.6531	0.33296	2.2501	-0.13485	-0.81731	0.077094	2.8159	-35.1207	754.2865	-60.1011	282.1223	83.4451	850.8292	-0.0592	0.0182	-0.0073	-0.0462	0.0165	0.9585
38.6644	0.2473	2.2675	-0.13558	-0.8226	0.043257	2.8668	-31.9155	758.2227	-59.2508	283.5425	80.6585	848.8355	-0.0592	0.0182	-0.0073	-0.0462	0.0165	0.9585
38.6756	0.16637	2.2368	-0.12558	-0.81609	0.0002544	2.8245	-28.1773	761.1127	-58.513	284.5548	77.7955	845.4997	-0.0592	0.0182	-0.0073	-0.0462	0.0165	0.9585
38.6868	0.046462	2.1679	-0.10577	-0.79747	-0.062858	2.7117	-23.9615	762.7556	-57.8591	285.0784	74.8507	840.6478	-0.0592	0.0182	-0.0073	-0.0462	0.0165	0.9585
38.698	-0.081521	2.0055	-0.062916	-0.74662	-0.15473	2.4585	-19.3835	763.1114	-57.3289	285.0881	71.9056	834.3032	-0.0592	0.0182	-0.0073	-0.0462	0.0165	0.9585
38.7092	-0.27869	1.7234	-0.00083548	-0.64748	-0.28877	2.0488	-14.5353	762.3228	-56.9211	284.6315	68.9944	826.6985	-0.0592	0.0182	-0.0073	-0.0462	0.0165	0.9585
38.7204	-0.49045	1.2354	0.082111	-0.46806	-0.4608	1.3799	-9.5179	760.7609	-56.6593	283.8389	66.1719	818.3143	-0.0592	0.0182	-0.0073	-0.0462	0.0165	0.9585
38.7316	-0.75326	0.48627	0.18949	-0.18369	-0.68351	0.40058	-4.4401	758.9267	-56.5454	282.891	63.4755	809.7648	-0.0592	0.0182	-0.0073	-0.0462	0.0165	0.9585
38.7429	-1.0039	-0.61016	0.3173	0.2362	-0.93649	-1.0098	0.57049	757.3324	-56.5956	281.9723	60.9653	801.6776	-0.0592	0.0182	-0.0073	-0.0462	0.0165	0.9585
38.7541	-1.2069	-2.0982	0.46229	0.81068	-1.1931	-2.8879	5.3665	756.3709	-56.8575	281.2216	58.742	794.5326	-0.0592	0.0182	-0.0073	-0.0462	0.0165	0.9585
38.7653	-1.2579	-3.9916	0.5854	1.5397	-1.369	-5.2735	9.768	756.1805	-57.3638	280.6849	56.904	788.5388	-0.0592	0.0182	-0.0073	-0.0462	0.0165	0.9585
38.7765	-1.0522	-6.1609	0.64626	2.3729	-1.3648	-7.9847	13.62	756.6255	-58.1697	280.3052	55.5655	783.6175	-0.0592	0.0182	-0.0073	-0.0462	0.0165	0.9585
38.7877	-0.39748	-8.2966	0.55484	3.1852	-1.0009	-10.6558	16.7927	757.385	-59.2505	279.963	54.7544	779.4693	-0.0592	0.0182	-0.0073	-0.0462	0.0165	0.9585
38.7989	0.88522	-9.8045	0.21084	3.7468	-0.074152	-12.5333	19.2369	758.0867	-60.5611	279.5267	54.4559	775.7155	-0.0592	0.0182	-0.0073	-0.0462	0.0165	0.9585
38.8101	3.0537	-9.7357	-0.5206	3.6915	1.6811	-12.4327	20.9901	758.35	-62.0006	278.8744	54.5693	771.9322	-0.0592	0.0182	-0.0073	-0.0462	0.0165	0.9585
38.8214	6.2693	-6.7255	-1.7852	2.4993	4.5143	-8.6243	22.1827	757.8096	-63.458	277.8969	54.9502	767.6858	-0.0592	0.0182	-0.0073	-0.0462	0.0165	0.9585
38.8326	10.621	0.98373	-3.7023	-0.49624	8.6102	1.1094	23.0386	756.0867	-64.8151	276.4901	55.4089	762.5297	-0.0592	0.0182	-0.0073	-0.0462	0.0165	0.9585
38.8438	15.9543	15.437	-6.354	-6.0611	13.9998	19.3752	23.8337	752.7875	-65.9331	274.5474	55.7205	755.9657	-0.0592	0.0182	-0.0073	-0.0462	0.0165	0.9585
38.855	21.7184	38.6424	-9.664	-14.943	20.3736	48.7182	24.8302	747.4592	-66.668	271.9392	55.6531	747.4489	-0.0592	0.0182	-0.0073	-0.0462	0.0165	0.9585
38.8662	26.8083	72.0636	-13.3627	-27.6719	26.9415	91.0231	26.2419	739.4844	-66.8461	268.4715	54.9613	736.3192	-0.0592	0.0182	-0.0073	-0.0462	0.0165	0.9585
38.8774	29.3555	115.7758	-16.7866	-44.2452	32.1544	146.4226	28.1607	728.0245	-66.2933	263.8602	53.4414	721.7449	-0.0592	0.0182	-0.0073	-0.0462	0.0165	0.9585
38.8886	27.2778	168.0417	-18.9788	-63.9606	34.0393	212.7844	30.5565	712.0192	-64.8563	257.7315	50.9536	702.7208	-0.0592	0.0182	-0.0073	-0.0462	0.0165	0.9585
38.8999	19.6962	225.4401	-18.9213	-85.4532	30.9605	285.8194	33.2677	690.3031	-62.4046	249.6628	47.4312	678.1944	-0.0592	0.0182	-0.0073	-0.0462	0.0165	0.9585
38.9111	8.0947	282.8995	-15.4288	-106.7303	22.0242	358.9812	36.0371	661.7672	-58.8684	239.2426	42.9066	647.191	-0.0592	0.0182	-0.0073	-0.0462	0.0165	0.9585
38.9223	-4.6861	334.9057	-8.0514	-125.7273	7.8587	424.926	38.5595	625.5614	-54.3099	226.1462	37.5583	609.0133	-0.0592	0.0182	-0.0073	-0.0462	0.0165	0.9585
38.9335	-16.5756	378.6529	2.0104	-141.4527	-9.2414	479.7142	40.4985	581.3974	-48.8724	210.2408	31.6494	563.5139	-0.0592	0.0182	-0.0073	-0.0462	0.0165	0.9585
